<svg viewBox="0 0 500 500" xmlns="http://www.w3.org/2000/svg" xmlns:xlink="http://www.w3.org/1999/xlink" width="100%" id="blobSvg">
  <path id="blob" d="M415.5,268Q356,286,355,308.5Q354,331,359.5,378.5Q365,426,336,449.5Q307,473,273.5,419.5Q240,366,215,377Q190,388,158.5,385.5Q127,383,128,349.5Q129,316,137,291.5Q145,267,128.5,247Q112,227,102,196Q92,165,96.5,126.5Q101,88,151.5,114.5Q202,141,218.5,104.5Q235,68,264,75Q293,82,325,84.5Q357,87,349.5,133Q342,179,392,181.5Q442,184,458.5,217Q475,250,415.5,268Z" fill="#00cec9"></path>
</svg>