<svg id="Layer_1" data-name="Layer 1" xmlns="http://www.w3.org/2000/svg" viewBox="0 0 200 200"><defs><style>.cls-1{fill:#fff;}.cls-2{fill:#1387c1;}</style></defs><rect class="cls-1" width="200" height="200"/><path class="cls-1" d="M104.94,41.3c4.28,2,8.4,4.09,12.64,5.89a3.43,3.43,0,0,0,2.94-.87,84.83,84.83,0,0,0,8.41-9.4,24.33,24.33,0,0,0,4.53-15.16c0-.82-1-2.28-1.52-2.31-3.76-.21-7.54-.11-11.08-.11-.57,2.89-1,5.3-1.54,7.67-.41,1.77-1.63,2.35-3.45,2.34q-15.48-.11-31,0c-1.84,0-3-.61-3.42-2.37-.57-2.46-1-4.94-1.53-7.43H67.55a23.22,23.22,0,0,0,2,13.13C73.83,42.49,81.74,48.6,91,53.17c5.82,2.87,11.85,5.3,17.69,8.15a65.66,65.66,0,0,1,6.8,4.4l-.37.68H85.68l-.31-.84,10.14-6.38c-3.74-2-7.46-3.75-11-5.87-1.94-1.18-3.29-.92-5,.32C64.13,64.8,63.47,84.43,78.7,95.8c5.35,4,11.92,6.38,18,9.28,4.83,2.3,9.87,4.14,14.71,6.42,1.63.77,2.92,2.26,5,4H85.24l-.39-.92,9.89-6.33c-4.48-2.15-8.72-4.25-13-6.2a2.73,2.73,0,0,0-2.23.38c-9,6.36-15.14,18.22-10,30.4,3.46,8.15,9.92,13.31,17.61,17.07,5.83,2.85,11.9,5.22,17.69,8.13,3.34,1.67,6.36,4,9.52,6l-.39.79H87a15.84,15.84,0,0,1,4.14-4c1.48-1,3-1.95,5-3.19-3-1.31-5.42-2.34-7.83-3.46-7.15-3.31-7.15-3.33-12.56,2.62a35.87,35.87,0,0,0-2.55,3.1c-3.84,5.34-6.16,11.21-5.82,17.88,0,.86.92,2.35,1.47,2.38,3.77.21,7.56.11,11.13.11.53-3,.92-5.6,1.47-8.17.39-1.85,1.55-2.6,3.57-2.59,10.32.1,20.64,0,31,.14a4.11,4.11,0,0,1,3.14,2.07,66.15,66.15,0,0,1,1.72,8.43h12.45c.09-1.12.25-2.13.24-3.12-.1-8.66-3.86-15.69-9.84-21.67-5.27-5.27-11.72-8.7-18.41-11.76q-8.3-3.79-16.43-7.9c-1.26-.63-2.25-1.82-4.06-3.32h30.15l.47.91-10,6.48c4.12,2.21,8.07,4.43,12.12,6.43a3.32,3.32,0,0,0,2.8-.32c13.8-9.48,17.13-25.48,6.87-38-5.08-6.19-11.9-9.71-19.17-12.61q-9.45-3.76-18.77-7.92c-1.57-.7-2.82-2.11-4.22-3.2l.37-.7h30l.47.92L106,90.75c4.5,2.14,8.82,4.26,13.22,6.22a2.8,2.8,0,0,0,2.23-.55c5.65-4.2,9.79-9.52,11.14-16.55,2.06-10.71-2.24-19.19-10.57-25.37C117,50.74,111,48.27,105.33,45.27c-5.26-2.8-10.6-5.47-15.84-8.32-1-.58-1.83-1.66-3.26-3h27.52l.43.81Z" transform="translate(-0.41 0.2)"/><path class="cls-2" d="M104.94,41.3l9.24-6.54-.43-.81H86.23c1.43,1.34,2.21,2.42,3.26,3,5.24,2.85,10.58,5.52,15.84,8.32,5.63,3,11.65,5.47,16.72,9.23,8.33,6.18,12.63,14.66,10.57,25.37-1.35,7-5.49,12.35-11.14,16.55a2.8,2.8,0,0,1-2.23.55c-4.4-2-8.72-4.08-13.22-6.22l9.81-6.38-.47-.92h-30l-.37.7c1.4,1.09,2.65,2.5,4.22,3.2q9.3,4.16,18.77,7.92c7.27,2.9,14.09,6.42,19.17,12.61,10.26,12.51,6.93,28.51-6.87,38a3.32,3.32,0,0,1-2.8.32c-4-2-8-4.22-12.12-6.43l10-6.48-.47-.91H84.78c1.81,1.5,2.8,2.69,4.06,3.32q8.14,4.09,16.43,7.9c6.69,3.06,13.14,6.49,18.41,11.76,6,6,9.74,13,9.84,21.67,0,1-.15,2-.24,3.12H120.83a66.15,66.15,0,0,0-1.72-8.43,4.11,4.11,0,0,0-3.14-2.07c-10.32-.16-20.64,0-31-.14-2,0-3.18.74-3.57,2.59-.55,2.57-.94,5.18-1.47,8.17-3.57,0-7.36.1-11.13-.11-.55,0-1.42-1.52-1.47-2.38-.34-6.67,2-12.54,5.82-17.88a35.87,35.87,0,0,1,2.55-3.1c5.41-5.95,5.41-5.93,12.56-2.62,2.41,1.12,4.86,2.15,7.83,3.46-2,1.24-3.54,2.16-5,3.19a15.84,15.84,0,0,0-4.14,4h27l.39-.79c-3.16-2-6.18-4.35-9.52-6-5.79-2.91-11.86-5.28-17.69-8.13C79.42,146.1,73,140.94,69.5,132.79c-5.16-12.18,1-24,10-30.4a2.73,2.73,0,0,1,2.23-.38c4.31,1.95,8.55,4,13,6.2l-9.89,6.33.39.92h31.25c-2.12-1.7-3.41-3.19-5-4-4.84-2.28-9.88-4.12-14.71-6.42-6.12-2.9-12.69-5.29-18-9.28-15.23-11.37-14.57-31,.85-42.17,1.71-1.24,3.06-1.5,5-.32,3.5,2.12,7.22,3.89,11,5.87L85.37,65.56l.31.84h29.46l.37-.68a65.66,65.66,0,0,0-6.8-4.4C102.87,58.47,96.84,56,91,53.17c-9.28-4.57-17.19-10.68-21.46-20.5a23.22,23.22,0,0,1-2-13.13H80c.51,2.49,1,5,1.53,7.43.41,1.76,1.58,2.39,3.42,2.37q15.48-.09,31,0c1.82,0,3-.57,3.45-2.34.55-2.37,1-4.78,1.54-7.67,3.54,0,7.32-.1,11.08.11.57,0,1.49,1.49,1.52,2.31a24.33,24.33,0,0,1-4.53,15.16,84.83,84.83,0,0,1-8.41,9.4,3.43,3.43,0,0,1-2.94.87C113.34,45.39,109.22,43.33,104.94,41.3Zm-4.51,37.61c5.35,0,10.7-.09,16,0,2.81.07,3.66-1.39,3.59-3.8s-.5-4.12-3.64-4.08q-16.05.21-32.11,0c-3.19,0-3.48,1.85-3.55,4.13S81.56,79,84.37,79C89.72,78.81,95.08,78.91,100.43,78.91Zm-.07,41.2c-5.25,0-10.52.13-15.76-.06-2.92-.1-3.93,1.17-3.85,3.82.08,2.43.72,4,3.77,4q15.92-.22,31.84,0c3.06,0,3.68-1.62,3.72-4s-.84-3.82-3.64-3.74C111.08,120.22,105.72,120.11,100.36,120.11Z" transform="translate(-0.41 0.2)"/><path class="cls-1" d="M100.43,78.91c-5.35,0-10.71-.1-16.06,0-2.81.07-3.67-1.33-3.6-3.76s.36-4.17,3.55-4.13q16.05.21,32.11,0c3.14,0,3.58,1.75,3.64,4.08s-.78,3.87-3.59,3.8C111.13,78.82,105.78,78.91,100.43,78.91Z" transform="translate(-0.41 0.2)"/><path class="cls-1" d="M100.36,120.11c5.36,0,10.72.11,16.08,0,2.8-.08,3.68,1.3,3.64,3.74s-.66,4.08-3.72,4q-15.92-.2-31.84,0c-3,0-3.69-1.55-3.77-4-.08-2.65.93-3.92,3.85-3.82C89.84,120.24,95.11,120.11,100.36,120.11Z" transform="translate(-0.41 0.2)"/></svg>