<?xml version="1.0" encoding="UTF-8" standalone="no"?>
<svg
   xmlns:dc="http://purl.org/dc/elements/1.1/"
   xmlns:cc="http://creativecommons.org/ns#"
   xmlns:rdf="http://www.w3.org/1999/02/22-rdf-syntax-ns#"
   xmlns:svg="http://www.w3.org/2000/svg"
   xmlns="http://www.w3.org/2000/svg"
   xmlns:sodipodi="http://sodipodi.sourceforge.net/DTD/sodipodi-0.dtd"
   xmlns:inkscape="http://www.inkscape.org/namespaces/inkscape"
   inkscape:version="1.0 (4035a4f, 2020-05-01)"
   sodipodi:docname="Gears200.svg"
   version="1.1"
   viewBox="0 0 200 200"
   data-name="Layer 1"
   id="Layer_1">
  <metadata
     id="metadata33">
    <rdf:RDF>
      <cc:Work
         rdf:about="">
        <dc:format>image/svg+xml</dc:format>
        <dc:type
           rdf:resource="http://purl.org/dc/dcmitype/StillImage" />
        <dc:title></dc:title>
      </cc:Work>
    </rdf:RDF>
  </metadata>
  <sodipodi:namedview
     inkscape:current-layer="Layer_1"
     inkscape:window-maximized="0"
     inkscape:window-y="25"
     inkscape:window-x="0"
     inkscape:cy="100"
     inkscape:cx="100"
     inkscape:zoom="1.2427365"
     showgrid="false"
     id="namedview31"
     inkscape:window-height="480"
     inkscape:window-width="740"
     inkscape:pageshadow="2"
     inkscape:pageopacity="0"
     guidetolerance="10"
     gridtolerance="10"
     objecttolerance="10"
     borderopacity="1"
     bordercolor="#666666"
     pagecolor="#ffffff" />
  <defs
     id="defs12">
    <style
       id="style10">.cls-1{fill:#fff;}.cls-2{fill:#74ae43;}</style>
  </defs>
  <rect
     id="rect14"
     height="200"
     width="200"
     class="cls-1" />
  <path
     id="path16"
     transform="translate(-0.41 0.2)"
     d="M21.71,117A8.8,8.8,0,0,0,20,118.92a2.08,2.08,0,0,0,1,3c1.38.75,2.69,1.6,4.07,2.36s2.29,1.62,2,3.35a3.09,3.09,0,0,1-2.7,2.58c-1.52.38-3,.89-4.53,1.26s-1.91,1.43-1.82,2.87a2.17,2.17,0,0,0,2.16,2.33,28.21,28.21,0,0,1,5.29.86,3.58,3.58,0,0,1,2.22,2,4,4,0,0,1-.87,3.09,27.38,27.38,0,0,1-4.15,3.39c-1.19.9-1.21,1.91-.58,3.14s1.39,1.89,2.84,1.47,3.19-.78,4.77-1.24a2.93,2.93,0,0,1,3.56,1,3,3,0,0,1,0,3.73c-.8,1.34-1.5,2.75-2.31,4.09a2.24,2.24,0,0,0,.54,3.17c1.07.94,2.12,1.28,3.38.27a29.17,29.17,0,0,1,4.3-3.19,3.68,3.68,0,0,1,3-.1,3.59,3.59,0,0,1,1.52,2.6,31.71,31.71,0,0,1-.54,5.55A2.26,2.26,0,0,0,45,169.23c1.27.43,2.33.35,3.07-1a27.8,27.8,0,0,1,2.78-4.58,3.84,3.84,0,0,1,2.9-1.35,4.06,4.06,0,0,1,2.45,2.09,17.91,17.91,0,0,1,1.33,4.49,2.48,2.48,0,0,0,2.95,2.29c1.89-.1,2.33-1.18,2.48-2.78a20.29,20.29,0,0,1,.77-4.62,3.7,3.7,0,0,1,2-2.26,4,4,0,0,1,3.11.87,23.27,23.27,0,0,1,3.24,4,2.27,2.27,0,0,0,3.28.76,2.33,2.33,0,0,0,1.45-3.06,23.87,23.87,0,0,1-1.16-4.77A5.39,5.39,0,0,1,76.71,156c.89-1.17,2.21-.91,3.43-.17,1.41.85,2.89,1.57,4.29,2.41a2.32,2.32,0,0,0,3.34-.68,2.23,2.23,0,0,0,.13-3.2,24.6,24.6,0,0,1-3-4.15,4,4,0,0,1-.24-3.21,3.79,3.79,0,0,1,2.8-1.55,29.36,29.36,0,0,1,5.33.58,2.28,2.28,0,0,0,2.66-1.84c.41-1.23.39-2.32-1-3.06a24,24,0,0,1-4.38-2.67,4.19,4.19,0,0,1-1.55-3,4.28,4.28,0,0,1,2.26-2.55,23,23,0,0,1,4.91-1.46c1.52-.35,1.8-1.37,1.7-2.69a2.24,2.24,0,0,0-2.11-2.42,30.53,30.53,0,0,1-5.5-.93,3.53,3.53,0,0,1-2.12-2.12,3.72,3.72,0,0,1,.9-2.9,24.13,24.13,0,0,1,4-3.25,2.28,2.28,0,0,0,.79-3.28c-.64-1.32-1.5-2-3-1.49-1.35.42-2.75.71-4.11,1.09s-2.88.69-4-.82-.64-2.75.18-4.11,1.44-2.61,2.19-3.9.29-2.27-.71-3.15a2.27,2.27,0,0,0-3.22-.2,27.3,27.3,0,0,1-4.32,3.16,4,4,0,0,1-3.25.06,3.59,3.59,0,0,1-1.37-2.67,26.7,26.7,0,0,1,.54-5.33c.29-1.68-.69-2.29-2-2.75a2.18,2.18,0,0,0-3,1.13c-.82,1.51-1.77,2.94-2.58,4.46-.7,1.32-1.84,2-3.13,1.41a5,5,0,0,1-2.39-2.24A19.38,19.38,0,0,1,57.82,94a2.39,2.39,0,0,0-2.8-2.2,2.37,2.37,0,0,0-2.54,2.49,22,22,0,0,1-.82,5.07,3.68,3.68,0,0,1-2.11,2.17,3.72,3.72,0,0,1-2.91-.81,18.69,18.69,0,0,1-2.82-3.46c-1-1.38-2-2.34-3.89-1.37s-1.61,2.25-1.16,3.78a17.89,17.89,0,0,1,1,4.11c0,1-.26,2.54-1,3a4.34,4.34,0,0,1-3.39.31,21,21,0,0,1-4.32-2.33,2.35,2.35,0,0,0-3.37.49,2.41,2.41,0,0,0-.07,3.57A25.13,25.13,0,0,1,30.72,113a3.67,3.67,0,0,1,.05,3,3.6,3.6,0,0,1-2.62,1.46A51.39,51.39,0,0,1,21.71,117ZM183.49,71.31c-.13-2.36-.66-3.65-2.81-3.55-1.33.06-2.69-.15-4-.07-1.84.1-2.49-1-2.88-2.5s-.61-2.77,1.07-3.66c1.31-.7,2.52-1.6,3.8-2.35s1.45-1.87.93-3.25a2.22,2.22,0,0,0-3-1.57c-1.3.32-2.65.51-3.91.94-1.91.65-2.85-.24-3.78-1.76s-.66-2.75.58-3.94c.92-.87,1.69-1.9,2.6-2.78a2.2,2.2,0,0,0,.31-3.33c-.95-1.27-2-1.7-3.45-.87-1.17.67-2.43,1.18-3.55,1.92-1.56,1-2.72.6-3.93-.63s-1.69-2.35-.63-3.93c.74-1.11,1.24-2.38,1.9-3.55.81-1.45.42-2.51-.86-3.46a2.3,2.3,0,0,0-3.38.28c-1,.94-2,1.77-2.92,2.77-1.16,1.34-2.32,1.32-3.74.46s-2.44-1.66-1.82-3.55c.46-1.42.66-2.91,1-4.35s-.33-2.22-1.59-2.76-2.32-.61-3.13.68-1.75,2.6-2.49,4c-1,1.8-2.37,1.41-3.86,1.06a2.46,2.46,0,0,1-2.25-2.8c.08-1.42-.1-2.84-.09-4.25,0-1.6-.84-2.28-2.31-2.47s-2.48.1-2.88,1.71c-.36,1.44-.94,2.83-1.28,4.28-.43,1.81-1.71,2-3.24,2s-2.63-.32-3-2c-.34-1.38-.86-2.7-1.21-4.08a2.34,2.34,0,0,0-2.94-2,2.29,2.29,0,0,0-2.31,2.67c0,1.41-.16,2.83-.11,4.24.06,1.9-1.23,2.35-2.66,2.74s-2.62.36-3.45-1.14-1.65-2.67-2.49-4-1.88-1.25-3.12-.71-1.94,1.31-1.57,2.77.69,3.21,1.1,4.8c.45,1.76-.77,2.39-2,3.08s-2.25,1.12-3.41-.12-2.29-2.13-3.41-3.23-2.25-.87-3.39,0a2.17,2.17,0,0,0-.74,3.11c.72,1.31,1.32,2.69,2.11,3.94,1,1.56.34,2.61-.77,3.72s-2.17,1.74-3.72.78c-1.33-.82-2.77-1.47-4.15-2.21s-2.23,0-3,1-1,2,0,3,2.08,2.34,3.2,3.44a2.5,2.5,0,0,1,.44,3.38c-1,1.89-2.17,2.71-4.29,1.94-1-.37-2.19-.48-3.26-.8a2.32,2.32,0,0,0-3.23,1.44c-.7,1.63-.33,2.69,1.2,3.51,1,.53,1.86,1.25,2.86,1.76,1.68.86,2.39,1.92,1.8,4s-1.73,2.76-3.75,2.58c-1-.09-2.09.11-3.13.07-1.58-.05-2.52.46-2.75,2.19s.37,2.69,2.06,3.09c1.15.28,2.25.84,3.42,1,1.92.34,2.51,1.41,2.53,3.28s-.73,2.91-2.56,3.31c-1.31.29-2.56.83-3.86,1.16-1.66.42-1.73,1.59-1.57,3A2.12,2.12,0,0,0,75.1,87c1.56,0,3.13.16,4.69.11,2,0,2.2,1.41,2.63,2.77s.32,2.46-1.07,3.23c-1.18.65-2.26,1.46-3.44,2.1-1.55.86-2.11,1.93-1.36,3.68s2.06,1.66,3.53,1.3a31,31,0,0,0,3.49-.8c1.87-.71,2.74.28,3.56,1.7s1.12,2.52-.28,3.75c-1.12,1-2,2.22-3,3.28s-.75,2.25.12,3.37a2.18,2.18,0,0,0,3.13.66c1.3-.73,2.67-1.35,3.93-2.14,1.6-1,2.65-.15,3.7.89s1.67,2.06.75,3.55a17.79,17.79,0,0,0-2.21,4.37,3.17,3.17,0,0,0,1,2.73,3.13,3.13,0,0,0,2.87.16,18.49,18.49,0,0,0,3.68-3.24,2.37,2.37,0,0,1,3.2-.4c1.85.92,2.8,2.11,2,4.27-.38,1-.46,2.19-.78,3.26-.46,1.5-.25,2.61,1.34,3.27s2.72.46,3.55-1.14c.51-1,1.24-1.87,1.75-2.86.8-1.56,1.79-2.46,3.72-1.93s3,1.45,2.82,3.59c-.09,1.11.09,2.23.06,3.35,0,1.55.46,2.61,2.18,2.81s2.76-.23,3.13-2c.23-1.09.72-2.13.94-3.22.37-1.86,1.23-2.79,3.33-2.76s3,.72,3.4,2.69c.22,1.24.76,2.41,1.07,3.64.42,1.62,1.57,1.81,2.95,1.65s2.21-.78,2.21-2.29.19-3,.09-4.47c-.13-2,1.31-2.48,2.75-2.93a2.52,2.52,0,0,1,3.4,1.26c.59,1.12,1.39,2.12,2,3.24.83,1.56,1.89,2.19,3.64,1.42s1.87-1.88,1.38-3.47a16.69,16.69,0,0,1-.87-4.15,3.33,3.33,0,0,1,1-2.41c2.26-1.87,3-1.75,5.12.3.76.72,1.57,1.39,2.28,2.15,1.08,1.13,2.13,1.42,3.53.41s1.54-2.23.73-3.67c-.58-1-1.07-2.14-1.72-3.13a2.72,2.72,0,0,1,.41-4c1.25-1.21,2.35-2,4.07-.82,1.1.75,2.37,1.25,3.54,1.92,1.44.83,2.48.47,3.44-.84a2.22,2.22,0,0,0-.25-3.34c-1-.93-1.79-2-2.78-2.91-1.52-1.36-1.11-2.68-.24-4.17s1.82-2,3.49-1.43c1.11.4,2.33.5,3.48.81,1.55.43,2.73.28,3.47-1.42s.21-2.67-1.26-3.49c-1.11-.61-2.11-1.42-3.24-2-1.59-.81-1.78-2-1.35-3.56s1-2.79,3-2.68c1.41.07,2.83-.08,4.25-.08,1.58,0,2.26-.84,2.47-2.31s-.24-2.45-1.76-2.86-3-1-4.5-1.37c-1.75-.46-1.75-1.81-1.75-3.18s.07-2.54,1.74-2.94a26.42,26.42,0,0,0,4.47-1.42A7.76,7.76,0,0,0,183.49,71.31Z"
     class="cls-1" />
  <path
     style="fill:#008000"
     id="path18"
     transform="translate(-0.41 0.2)"
     d="M21.71,117a51.39,51.39,0,0,0,6.44.52,3.6,3.6,0,0,0,2.62-1.46,3.67,3.67,0,0,0-.05-3,25.13,25.13,0,0,0-3.06-4.12,2.41,2.41,0,0,1,.07-3.57,2.35,2.35,0,0,1,3.37-.49,21,21,0,0,0,4.32,2.33,4.34,4.34,0,0,0,3.39-.31c.71-.51,1-2,1-3a17.89,17.89,0,0,0-1-4.11c-.45-1.53-.66-2.86,1.16-3.78s2.89,0,3.89,1.37a18.69,18.69,0,0,0,2.82,3.46,3.72,3.72,0,0,0,2.91.81,3.68,3.68,0,0,0,2.11-2.17,22,22,0,0,0,.82-5.07A2.37,2.37,0,0,1,55,91.83a2.39,2.39,0,0,1,2.8,2.2,19.38,19.38,0,0,0,1.32,4.49,5,5,0,0,0,2.39,2.24c1.29.54,2.43-.09,3.13-1.41.81-1.52,1.76-2.95,2.58-4.46a2.18,2.18,0,0,1,3-1.13c1.28.46,2.26,1.07,2,2.75a26.7,26.7,0,0,0-.54,5.33A3.59,3.59,0,0,0,73,104.51a4,4,0,0,0,3.25-.06,27.3,27.3,0,0,0,4.32-3.16,2.27,2.27,0,0,1,3.22.2c1,.88,1.46,1.86.71,3.15s-1.42,2.63-2.19,3.9-1.31,2.63-.18,4.11,2.55,1.24,4,.82,2.76-.67,4.11-1.09c1.52-.47,2.38.17,3,1.49a2.28,2.28,0,0,1-.79,3.28,24.13,24.13,0,0,0-4,3.25,3.72,3.72,0,0,0-.9,2.9,3.53,3.53,0,0,0,2.12,2.12,30.53,30.53,0,0,0,5.5.93,2.24,2.24,0,0,1,2.11,2.42c.1,1.32-.18,2.34-1.7,2.69a23,23,0,0,0-4.91,1.46,4.28,4.28,0,0,0-2.26,2.55,4.19,4.19,0,0,0,1.55,3,24,24,0,0,0,4.38,2.67c1.36.74,1.38,1.83,1,3.06a2.28,2.28,0,0,1-2.66,1.84,29.36,29.36,0,0,0-5.33-.58,3.79,3.79,0,0,0-2.8,1.55,4,4,0,0,0,.24,3.21,24.6,24.6,0,0,0,3,4.15,2.23,2.23,0,0,1-.13,3.2,2.32,2.32,0,0,1-3.34.68c-1.4-.84-2.88-1.56-4.29-2.41-1.22-.74-2.54-1-3.43.17a5.39,5.39,0,0,0-1.06,3.29,23.87,23.87,0,0,0,1.16,4.77,2.33,2.33,0,0,1-1.45,3.06,2.27,2.27,0,0,1-3.28-.76,23.27,23.27,0,0,0-3.24-4,4,4,0,0,0-3.11-.87,3.7,3.7,0,0,0-2,2.26,20.29,20.29,0,0,0-.77,4.62c-.15,1.6-.59,2.68-2.48,2.78a2.48,2.48,0,0,1-2.95-2.29,17.91,17.91,0,0,0-1.33-4.49,4.06,4.06,0,0,0-2.45-2.09,3.84,3.84,0,0,0-2.9,1.35,27.8,27.8,0,0,0-2.78,4.58c-.74,1.32-1.8,1.4-3.07,1a2.26,2.26,0,0,1-1.84-2.64,31.71,31.71,0,0,0,.54-5.55,3.59,3.59,0,0,0-1.52-2.6,3.68,3.68,0,0,0-3,.1,29.17,29.17,0,0,0-4.3,3.19c-1.26,1-2.31.67-3.38-.27a2.24,2.24,0,0,1-.54-3.17c.81-1.34,1.51-2.75,2.31-4.09a3,3,0,0,0,0-3.73,2.93,2.93,0,0,0-3.56-1c-1.58.46-3.19.79-4.77,1.24s-2.23-.26-2.84-1.47-.61-2.24.58-3.14a27.38,27.38,0,0,0,4.15-3.39,4,4,0,0,0,.87-3.09,3.58,3.58,0,0,0-2.22-2,28.21,28.21,0,0,0-5.29-.86A2.17,2.17,0,0,1,18,134.37c-.09-1.44.26-2.48,1.82-2.87s3-.88,4.53-1.26a3.09,3.09,0,0,0,2.7-2.58c.29-1.73-.67-2.61-2-3.35S22.39,122.7,21,122a2.08,2.08,0,0,1-1-3A8.8,8.8,0,0,1,21.71,117Zm26,14.58a10,10,0,0,0,20-.09,10,10,0,1,0-20,.09Z"
     class="cls-2" />
  <path
     style="fill:#008000"
     id="path20"
     transform="translate(-0.41 0.2)"
     d="M183.49,71.31a7.76,7.76,0,0,1-1.89,1.55,26.42,26.42,0,0,1-4.47,1.42c-1.67.4-1.74,1.63-1.74,2.94s0,2.72,1.75,3.18c1.52.4,3,.95,4.5,1.37s2,1.38,1.76,2.86-.89,2.32-2.47,2.31c-1.42,0-2.84.15-4.25.08-2-.11-2.52,1.14-3,2.68s-.24,2.75,1.35,3.56c1.13.57,2.13,1.38,3.24,2,1.47.82,2,1.83,1.26,3.49s-1.92,1.85-3.47,1.42c-1.15-.31-2.37-.41-3.48-.81-1.67-.6-2.66,0-3.49,1.43s-1.28,2.81.24,4.17c1,.89,1.81,2,2.78,2.91a2.22,2.22,0,0,1,.25,3.34c-1,1.31-2,1.67-3.44.84-1.17-.67-2.44-1.17-3.54-1.92-1.72-1.17-2.82-.39-4.07.82a2.72,2.72,0,0,0-.41,4c.65,1,1.14,2.09,1.72,3.13.81,1.44.74,2.61-.73,3.67s-2.45.72-3.53-.41c-.71-.76-1.52-1.43-2.28-2.15-2.14-2-2.86-2.17-5.12-.3a3.33,3.33,0,0,0-1,2.41,16.69,16.69,0,0,0,.87,4.15c.49,1.59.28,2.73-1.38,3.47s-2.81.14-3.64-1.42c-.59-1.12-1.39-2.12-2-3.24a2.52,2.52,0,0,0-3.4-1.26c-1.44.45-2.88.88-2.75,2.93.1,1.48-.09,3-.09,4.47s-.85,2.13-2.21,2.29-2.53,0-2.95-1.65c-.31-1.23-.85-2.4-1.07-3.64-.36-2-1.39-2.67-3.4-2.69s-3,.9-3.33,2.76c-.22,1.09-.71,2.13-.94,3.22-.37,1.79-1.51,2.2-3.13,2s-2.21-1.26-2.18-2.81c0-1.12-.15-2.24-.06-3.35.19-2.14-.92-3.07-2.82-3.59s-2.92.37-3.72,1.93c-.51,1-1.24,1.87-1.75,2.86-.83,1.6-2,1.79-3.55,1.14s-1.8-1.77-1.34-3.27c.32-1.07.4-2.21.78-3.26.77-2.16-.18-3.35-2-4.27a2.37,2.37,0,0,0-3.2.4,18.49,18.49,0,0,1-3.68,3.24,3.13,3.13,0,0,1-2.87-.16,3.17,3.17,0,0,1-1-2.73,17.79,17.79,0,0,1,2.21-4.37c.92-1.49.28-2.53-.75-3.55S92.59,109,91,110c-1.26.79-2.63,1.41-3.93,2.14a2.18,2.18,0,0,1-3.13-.66c-.87-1.12-1.28-2.17-.12-3.37s1.92-2.3,3-3.28c1.4-1.23,1.07-2.39.28-3.75s-1.69-2.41-3.56-1.7a31,31,0,0,1-3.49.8c-1.47.36-2.77.47-3.53-1.3s-.19-2.82,1.36-3.68c1.18-.64,2.26-1.45,3.44-2.1,1.39-.77,1.52-1.87,1.07-3.23s-.66-2.82-2.63-2.77c-1.56,0-3.13-.1-4.69-.11a2.12,2.12,0,0,1-2.31-2.18c-.16-1.37-.09-2.54,1.57-3,1.3-.33,2.55-.87,3.86-1.16,1.83-.4,2.57-1.4,2.56-3.31s-.61-2.94-2.53-3.28c-1.17-.2-2.27-.76-3.42-1-1.69-.4-2.3-1.35-2.06-3.09s1.17-2.24,2.75-2.19c1,0,2.1-.16,3.13-.07,2,.18,3.15-.52,3.75-2.58s-.12-3.09-1.8-4c-1-.51-1.88-1.23-2.86-1.76-1.53-.82-1.9-1.88-1.2-3.51a2.32,2.32,0,0,1,3.23-1.44c1.07.32,2.21.43,3.26.8,2.12.77,3.32,0,4.29-1.94a2.5,2.5,0,0,0-.44-3.38c-1.12-1.1-2.12-2.3-3.2-3.44s-.74-2,0-3,1.64-1.75,3-1,2.82,1.39,4.15,2.21c1.55,1,2.61.35,3.72-.78s1.75-2.16.77-3.72c-.79-1.25-1.39-2.63-2.11-3.94A2.17,2.17,0,0,1,94,33.12c1.14-.88,2.24-1.13,3.39,0s2.35,2.09,3.41,3.23,2.26.79,3.41.12,2.4-1.32,2-3.08c-.41-1.59-.7-3.21-1.1-4.8s.31-2.23,1.57-2.77,2.32-.54,3.12.71,1.74,2.62,2.49,4,2,1.53,3.45,1.14,2.72-.84,2.66-2.74c0-1.41.15-2.83.11-4.24A2.29,2.29,0,0,1,120.76,22a2.34,2.34,0,0,1,2.94,2c.35,1.38.87,2.7,1.21,4.08.41,1.65,1.56,2,3,2s2.81-.22,3.24-2c.34-1.45.92-2.84,1.28-4.28.4-1.61,1.46-1.89,2.88-1.71s2.33.87,2.31,2.47c0,1.41.17,2.83.09,4.25a2.46,2.46,0,0,0,2.25,2.8c1.49.35,2.91.74,3.86-1.06.74-1.38,1.65-2.66,2.49-4s1.89-1.2,3.13-.68,2,1.29,1.59,2.76-.58,2.93-1,4.35c-.62,1.89.46,2.72,1.82,3.55s2.58.88,3.74-.46c.88-1,2-1.83,2.92-2.77a2.3,2.3,0,0,1,3.38-.28c1.28,1,1.67,2,.86,3.46-.66,1.17-1.16,2.44-1.9,3.55-1.06,1.58-.56,2.72.63,3.93s2.37,1.67,3.93.63c1.12-.74,2.38-1.25,3.55-1.92,1.45-.83,2.5-.4,3.45.87a2.2,2.2,0,0,1-.31,3.33c-.91.88-1.68,1.91-2.6,2.78-1.24,1.19-1.57,2.34-.58,3.94s1.87,2.41,3.78,1.76c1.26-.43,2.61-.62,3.91-.94a2.22,2.22,0,0,1,3,1.57c.52,1.38.45,2.44-.93,3.25s-2.49,1.65-3.8,2.35c-1.68.89-1.44,2.22-1.07,3.66s1,2.6,2.88,2.5c1.33-.08,2.69.13,4,.07C182.83,67.66,183.36,69,183.49,71.31ZM128,117.86A40.55,40.55,0,1,0,87.54,77.12,40.54,40.54,0,0,0,128,117.86Z"
     class="cls-2" />
  <path
     id="path22"
     transform="translate(-0.41 0.2)"
     d="M47.73,131.58a10,10,0,1,1,20-.09,10,10,0,0,1-20,.09Z"
     class="cls-1" />
  <path
     id="path24"
     transform="translate(-0.41 0.2)"
     d="M128,117.86a40.55,40.55,0,1,1,40.65-40.54A40.49,40.49,0,0,1,128,117.86Zm0-1.32A39.23,39.23,0,1,0,88.86,76.86,39.16,39.16,0,0,0,127.93,116.54Z"
     class="cls-1" />
  <path
     style="fill:#008000"
     id="path26"
     transform="translate(-0.41 0.2)"
     d="M127.93,116.54a39.23,39.23,0,1,1,39.36-39A39.08,39.08,0,0,1,127.93,116.54ZM138,77.4a10,10,0,1,0-19.93-.13A10,10,0,0,0,138,77.4Z"
     class="cls-2" />
  <path
     id="path28"
     transform="translate(-0.41 0.2)"
     d="M138,77.4a10,10,0,0,1-19.93-.13A10,10,0,1,1,138,77.4Z"
     class="cls-1" />
</svg>
