<svg id="Layer_1" data-name="Layer 1" xmlns="http://www.w3.org/2000/svg" viewBox="0 0 200 200"><defs><style>.cls-1{fill:#fff;}.cls-2{fill:#f89923;}</style></defs><rect class="cls-1" width="200" height="200"/><path class="cls-1" d="M173.24,106.38c0-18.26,0-36.52-.07-54.78a9.73,9.73,0,0,0-1.58-5c-1.45-2.22-3.93-2.62-6.5-2.61-10.93,0-21.87,0-32.8,0-1.7,0-2.29-.53-2.22-2.22.1-2.94,0-5.89,0-8.84,0-5.32-2.82-8.14-8.11-8.14-21.58,0-43.16,0-64.74,0a5.4,5.4,0,0,0-4.18,1.74q-10.85,11-21.82,21.8a5.81,5.81,0,0,0-1.85,4.56q.06,46.47,0,92.95c0,5.56,2.78,8.33,8.37,8.33,11.15,0,22.29,0,33.44,0,1.93,0,4.64-.55,5.57.46s.51,3.75.66,5.72v.22c.12,5.15,3,8,8.07,8q39.91,0,79.84,0c5,0,7.87-2.86,7.87-7.87Z" transform="translate(-0.41 0.2)"/><path class="cls-2" d="M173.24,106.38v54.36c0,5-2.84,7.87-7.87,7.87q-39.92,0-79.84,0c-5.11,0-8-2.84-8.07-8v-.22c-.15-2,.39-4.58-.66-5.72s-3.64-.46-5.57-.46c-11.15,0-22.29,0-33.44,0-5.59,0-8.37-2.77-8.37-8.33q0-46.47,0-92.95a5.81,5.81,0,0,1,1.85-4.56q11-10.83,21.82-21.8a5.4,5.4,0,0,1,4.18-1.74c21.58.05,43.16,0,64.74,0,5.29,0,8.08,2.82,8.11,8.14,0,3,.08,5.9,0,8.84-.07,1.69.52,2.23,2.22,2.22,10.93-.06,21.87,0,32.8,0,2.57,0,5,.39,6.5,2.61a9.73,9.73,0,0,1,1.58,5C173.28,69.86,173.24,88.12,173.24,106.38Zm-48.18,4.31c.11-1,.19-1.47.2-1.89q0-38,0-75.93c0-2.53-.66-3.17-3.26-3.17q-30.87,0-61.73,0c-1.61,0-2.11.54-2.09,2.13.08,4.67.06,9.34,0,14s-3,7.74-7.85,7.77c-4.39,0-8.78,0-13.17,0-2.92,0-2.93,0-2.93,2.95V145c0,4.08.31,4.38,4.46,4.38h82c.5,0,1,0,1.51,0,2.32-.09,3-.7,3-3,0-1.58,0-3.16,0-4.74,0-1.89,0-3.78,0-5.67l-.62-.18c-1.06.82-2.12,1.63-3.17,2.46-1.62,1.27-3.32,2-5.37,1a4.4,4.4,0,0,1-2.69-4.51c.1-1.82-.77-2.14-2.34-2.13-6.91.05-13.81,0-20.72,0-4,0-5.72-1.76-5.76-5.8,0-2.45,0-4.89,0-7.33,0-4.45,1.65-6,6.18-6.06,6.77,0,13.53,0,20.29,0,1.56,0,2.45-.34,2.35-2.15a4.31,4.31,0,0,1,2.75-4.47,4.79,4.79,0,0,1,5.22,1C122.45,108.71,123.58,109.54,125.06,110.69Zm5.29-21.25c.7,0,1.27.08,1.83.09,1.6,0,2.73.77,2.78,2.38a2.25,2.25,0,0,1-2.53,2.38c-2.24-.16-2.5,1-2.35,2.75a8.89,8.89,0,0,1,0,1.93c-.24,1.94.46,2.65,2.5,2.61,7.27-.11,14.54,0,21.8,0,.72,0,1.44,0,2.16,0,1.4.1,2.34.78,2.36,2.27a2.17,2.17,0,0,1-2.29,2.33c-.71.06-1.43,0-2.15,0-7.41,0-14.82,0-22.23,0-1.56,0-2,.47-2.2,2.06-.57,4.61.51,8.3,4.87,10.57a3.38,3.38,0,0,1,.66.55,4.75,4.75,0,0,1,0,7.38c-1.27,1.16-2.79,2.07-3.95,3.33a5.32,5.32,0,0,0-1.42,3.07c-.16,4.09-.06,8.19-.07,12.29,0,6.16-2.62,8.75-8.82,8.75-12.3,0-24.6,0-36.91,0-1.66,0-2.4.45-2.22,2.2.12,1.21,0,2.44,0,3.66,0,3,.67,3.68,3.69,3.68q39.5,0,79,0c3.07,0,3.66-.58,3.66-3.67q0-53.71,0-107.44c0-3.15-.69-3.85-3.78-3.86-10.79,0-21.58,0-32.37,0-1.81,0-2.34.58-2.33,2.35q.12,12.07,0,24.16c0,1.8.54,2.34,2.32,2.32,7.48-.09,15,0,22.45,0a5.16,5.16,0,0,1,2.51.33,3,3,0,0,1,1.46,2.06,3.28,3.28,0,0,1-1.39,2.14,4,4,0,0,1-2.09.27H135.9c-6.24,0-6.24,0-5.77,6.27A7.12,7.12,0,0,0,130.35,89.44ZM118.19,134l.63.3,13.6-11.25L118,111.29c0,1.43,0,2.12,0,2.8.09,3.78-.3,4.18-4.17,4.18-6,0-12.08,0-18.12,0-2,0-4.82-.59-5.77.46s-.57,3.89-.61,5.94c-.06,3.1,0,3.11,3,3.11,7.41,0,14.82,0,22.23,0,2.7,0,3.42.79,3.48,3.49C118.09,132.21,118.15,133.11,118.19,134Zm-64.92-100-.93-.76L38,47.75l.69.93c4.21,0,8.42.09,12.62-.09a2.74,2.74,0,0,0,1.9-1.88C53.36,42.5,53.27,38.27,53.27,34.05Z" transform="translate(-0.41 0.2)"/><path class="cls-1" d="M125.06,110.69c-1.48-1.15-2.61-2-3.68-2.87a4.79,4.79,0,0,0-5.22-1,4.31,4.31,0,0,0-2.75,4.47c.1,1.81-.79,2.16-2.35,2.15-6.76,0-13.52,0-20.29,0-4.53,0-6.15,1.61-6.18,6.06,0,2.44,0,4.88,0,7.33,0,4,1.76,5.79,5.76,5.8,6.91,0,13.81,0,20.72,0,1.57,0,2.44.31,2.34,2.13a4.4,4.4,0,0,0,2.69,4.51c2.05,1,3.75.25,5.37-1,1-.83,2.11-1.64,3.17-2.46l.62.18c0,1.89,0,3.78,0,5.67,0,1.58,0,3.16,0,4.74-.07,2.27-.71,2.88-3,3-.5,0-1,0-1.51,0h-82c-4.15,0-4.46-.3-4.46-4.38V56.54c0-2.95,0-2.95,2.93-2.95,4.39,0,8.78,0,13.17,0,4.86,0,7.82-2.95,7.85-7.77s.06-9.35,0-14c0-1.59.48-2.13,2.09-2.13q30.87.06,61.73,0c2.6,0,3.26.64,3.26,3.17q0,38,0,75.93C125.25,109.22,125.17,109.64,125.06,110.69ZM79.67,68H92.18q10.23,0,20.48,0c1.63,0,3-.6,3-2.37s-1.34-2.37-2.93-2.47c-.35,0-.71,0-1.07,0H47.83c-.72,0-1.61-.14-2.1.22C45,63.92,43.88,65,44,65.63c.14.85,1.24,1.66,2.1,2.25.45.3,1.26.09,1.9.09ZM91.79,91.89h6.9c4.6,0,9.2,0,13.79,0,1.68,0,3.18-.43,3.16-2.39s-1.56-2.35-3.21-2.32H71.89c-.71,0-1.61-.19-2.11.15C69,87.87,68,88.8,68,89.55s1.07,1.66,1.87,2.19c.51.34,1.39.14,2.11.15Zm-24-16.74H48.12c-3,0-4.28.72-4.28,2.39S45.14,80,48.12,80H87.39a5.34,5.34,0,0,0,2.53-.28c.74-.45,1.69-1.47,1.62-2.15s-1-1.69-1.82-2.27c-.42-.32-1.25-.12-1.9-.12Zm39.59,0h-5.58c-1.59,0-2.67.67-2.72,2.36a2.24,2.24,0,0,0,2.47,2.4c3.86.08,7.73.08,11.59,0a2.29,2.29,0,0,0,2.54-2.36c0-1.63-1.13-2.38-2.72-2.4ZM52.21,91.86c1.94,0,3.88,0,5.82,0a2.18,2.18,0,0,0,2.43-2.4,2.14,2.14,0,0,0-2.39-2.23q-5.82-.06-11.64,0c-1.48,0-2.55.71-2.56,2.3s1,2.3,2.52,2.34C48.32,91.9,50.27,91.86,52.21,91.86Z" transform="translate(-0.41 0.2)"/><path class="cls-1" d="M130.35,89.44a7.12,7.12,0,0,1-.22-.83c-.47-6.27-.47-6.27,5.77-6.27h19.42a4,4,0,0,0,2.09-.27,3.28,3.28,0,0,0,1.39-2.14,3,3,0,0,0-1.46-2.06,5.16,5.16,0,0,0-2.51-.33c-7.49,0-15-.07-22.45,0-1.78,0-2.34-.52-2.32-2.32q.12-12.07,0-24.16c0-1.77.52-2.36,2.33-2.35,10.79.07,21.58,0,32.37,0,3.09,0,3.78.71,3.78,3.86q0,53.72,0,107.44c0,3.09-.59,3.67-3.66,3.67q-39.51,0-79,0c-3,0-3.64-.64-3.69-3.68,0-1.22.07-2.45,0-3.66-.18-1.75.56-2.21,2.22-2.2,12.31.05,24.61,0,36.91,0,6.2,0,8.81-2.59,8.82-8.75,0-4.1-.09-8.2.07-12.29a5.32,5.32,0,0,1,1.42-3.07c1.16-1.26,2.68-2.17,3.95-3.33a4.75,4.75,0,0,0,0-7.38,3.38,3.38,0,0,0-.66-.55c-4.36-2.27-5.44-6-4.87-10.57.2-1.59.64-2.07,2.2-2.06,7.41.07,14.82,0,22.23,0,.72,0,1.44,0,2.15,0a2.17,2.17,0,0,0,2.29-2.33c0-1.49-1-2.17-2.36-2.27-.72,0-1.44,0-2.16,0-7.26,0-14.53-.07-21.8,0-2,0-2.74-.67-2.5-2.61a8.89,8.89,0,0,0,0-1.93c-.15-1.74.11-2.91,2.35-2.75A2.25,2.25,0,0,0,135,91.91c-.05-1.61-1.18-2.36-2.78-2.38C131.62,89.52,131.05,89.47,130.35,89.44Zm20.35.1c-1.93,0-3.86,0-5.79,0-1.48,0-2.52.69-2.6,2.27a2.23,2.23,0,0,0,2.38,2.49q5.9.15,11.81,0a2.23,2.23,0,0,0,2.39-2.48,2.3,2.3,0,0,0-2.6-2.26C154.43,89.51,152.57,89.54,150.7,89.54Z" transform="translate(-0.41 0.2)"/><path class="cls-1" d="M118.19,134c0-.91-.1-1.81-.12-2.72-.06-2.7-.78-3.48-3.48-3.49-7.41,0-14.82,0-22.23,0-3,0-3.09,0-3-3.11,0-2-.47-4.76.61-5.94s3.77-.45,5.77-.46c6,0,12.08,0,18.12,0,3.87,0,4.26-.4,4.17-4.18,0-.68,0-1.37,0-2.8l14.42,11.78-13.6,11.25Z" transform="translate(-0.41 0.2)"/><path class="cls-1" d="M53.27,34.05c0,4.22.09,8.45-.08,12.66a2.74,2.74,0,0,1-1.9,1.88c-4.2.18-8.41.09-12.62.09L38,47.75,52.34,33.29Z" transform="translate(-0.41 0.2)"/><path class="cls-2" d="M79.67,68H48c-.64,0-1.45.21-1.9-.09-.86-.59-2-1.4-2.1-2.25-.1-.68,1-1.71,1.75-2.29.49-.36,1.38-.22,2.1-.22h63.81c.36,0,.72,0,1.07,0,1.59.1,3,.66,2.93,2.47s-1.35,2.37-3,2.37q-10.25,0-20.48,0Z" transform="translate(-0.41 0.2)"/><path class="cls-2" d="M91.79,91.89H72c-.72,0-1.6.19-2.11-.15C69,91.21,68,90.31,68,89.55s1-1.68,1.81-2.22c.5-.34,1.4-.15,2.11-.15h40.54c1.65,0,3.19.35,3.21,2.32s-1.48,2.39-3.16,2.39c-4.59,0-9.19,0-13.79,0Z" transform="translate(-0.41 0.2)"/><path class="cls-2" d="M67.76,75.15H87.82c.65,0,1.48-.2,1.9.12.78.58,1.73,1.44,1.82,2.27s-.88,1.7-1.62,2.15a5.34,5.34,0,0,1-2.53.28H48.12c-3,0-4.29-.76-4.28-2.44s1.28-2.39,4.28-2.39Z" transform="translate(-0.41 0.2)"/><path class="cls-2" d="M107.35,75.16h5.58c1.59,0,2.69.77,2.72,2.4a2.29,2.29,0,0,1-2.54,2.36c-3.86.08-7.73.08-11.59,0a2.24,2.24,0,0,1-2.47-2.4c0-1.69,1.13-2.36,2.72-2.36Z" transform="translate(-0.41 0.2)"/><path class="cls-2" d="M52.21,91.86c-1.94,0-3.89,0-5.82,0-1.49,0-2.54-.77-2.52-2.34s1.08-2.29,2.56-2.3q5.82,0,11.64,0a2.14,2.14,0,0,1,2.39,2.23A2.18,2.18,0,0,1,58,91.85C56.09,91.9,54.15,91.86,52.21,91.86Z" transform="translate(-0.41 0.2)"/><path class="cls-2" d="M150.7,89.54c1.87,0,3.73,0,5.59,0a2.3,2.3,0,0,1,2.6,2.26,2.23,2.23,0,0,1-2.39,2.48q-5.91.17-11.81,0a2.23,2.23,0,0,1-2.38-2.49c.08-1.58,1.12-2.24,2.6-2.27C146.84,89.51,148.77,89.54,150.7,89.54Z" transform="translate(-0.41 0.2)"/></svg>