<svg viewBox="0 0 500 500" xmlns="http://www.w3.org/2000/svg" xmlns:xlink="http://www.w3.org/1999/xlink" width="100%" id="blobSvg">
  <path id="blob" d="M386.5,274Q390,298,397,334Q404,370,357,356Q310,342,308,407.5Q306,473,273,420Q240,367,200,410.5Q160,454,137.5,425Q115,396,107.5,363.5Q100,331,74.5,307.5Q49,284,63,252.5Q77,221,64,181.5Q51,142,68,106.5Q85,71,135.5,87.5Q186,104,210,80Q234,56,262.5,72.5Q291,89,309,111Q327,133,365,132Q403,131,374.5,174Q346,217,364.5,233.5Q383,250,386.5,274Z" fill="#fdcb6e"></path>
</svg>