<?xml version="1.0" encoding="UTF-8" standalone="no"?>
<!-- Created with Inkscape (http://www.inkscape.org/) -->

<svg
   xmlns:dc="http://purl.org/dc/elements/1.1/"
   xmlns:cc="http://creativecommons.org/ns#"
   xmlns:rdf="http://www.w3.org/1999/02/22-rdf-syntax-ns#"
   xmlns:svg="http://www.w3.org/2000/svg"
   xmlns="http://www.w3.org/2000/svg"
   xmlns:xlink="http://www.w3.org/1999/xlink"
   version="1.1"
   width="256"
   height="256"
   id="svg2">
  <metadata
     id="metadata24">
    <rdf:RDF>
      <cc:Work
         rdf:about="">
        <dc:format>image/svg+xml</dc:format>
        <dc:type
           rdf:resource="http://purl.org/dc/dcmitype/StillImage" />
        <dc:title></dc:title>
      </cc:Work>
    </rdf:RDF>
  </metadata>
  <defs
     id="defs4">
    <linearGradient
       x1="55.549179"
       y1="77.070274"
       x2="110.14919"
       y2="131.85291"
       id="linearGradient9521"
       xlink:href="#linearGradient9515"
       gradientUnits="userSpaceOnUse" />
    <linearGradient
       id="linearGradient9515">
      <stop
         id="stop9517"
         style="stop-color:#7cc040;stop-opacity:1"
         offset="0" />
      <stop
         id="stop9519"
         style="stop-color:#659c34;stop-opacity:1"
         offset="1" />
    </linearGradient>
    <linearGradient
       x1="89.136749"
       y1="111.92053"
       x2="147.77737"
       y2="168.1012"
       id="linearGradient11307"
       xlink:href="#linearGradient11301"
       gradientUnits="userSpaceOnUse" />
    <linearGradient
       id="linearGradient11301">
      <stop
         id="stop11303"
         style="stop-color:#659c34;stop-opacity:1"
         offset="0" />
      <stop
         id="stop11305"
         style="stop-color:#7cc040;stop-opacity:1"
         offset="1" />
    </linearGradient>
    <linearGradient
       x1="55.549179"
       y1="77.070274"
       x2="110.14919"
       y2="131.85291"
       id="linearGradient3010"
       xlink:href="#linearGradient9515"
       gradientUnits="userSpaceOnUse" />
    <linearGradient
       x1="89.136749"
       y1="111.92053"
       x2="147.77737"
       y2="168.1012"
       id="linearGradient3012"
       xlink:href="#linearGradient11301"
       gradientUnits="userSpaceOnUse" />
    <linearGradient
       x1="55.549179"
       y1="77.070274"
       x2="110.14919"
       y2="131.85291"
       id="linearGradient3022"
       xlink:href="#linearGradient9515"
       gradientUnits="userSpaceOnUse" />
    <linearGradient
       x1="89.136749"
       y1="111.92053"
       x2="147.77737"
       y2="168.1012"
       id="linearGradient3024"
       xlink:href="#linearGradient11301"
       gradientUnits="userSpaceOnUse" />
    <linearGradient
       x1="55.549179"
       y1="77.070274"
       x2="110.14919"
       y2="131.85291"
       id="linearGradient3029"
       xlink:href="#linearGradient9515"
       gradientUnits="userSpaceOnUse" />
    <linearGradient
       x1="89.136749"
       y1="111.92053"
       x2="147.77737"
       y2="168.1012"
       id="linearGradient3031"
       xlink:href="#linearGradient11301"
       gradientUnits="userSpaceOnUse" />
    <linearGradient
       x1="55.549179"
       y1="77.070274"
       x2="110.14919"
       y2="131.85291"
       id="linearGradient3037"
       xlink:href="#linearGradient9515"
       gradientUnits="userSpaceOnUse"
       gradientTransform="matrix(2.3183964,0,0,2.3305334,-104.18276,-157.2379)" />
    <linearGradient
       x1="64.159966"
       y1="160.37045"
       x2="258.00021"
       y2="160.37045"
       id="linearGradient3813"
       xlink:href="#linearGradient11301"
       gradientUnits="userSpaceOnUse"
       gradientTransform="translate(2.0000358,1.99972)" />
    <linearGradient
       x1="55.549179"
       y1="77.070274"
       x2="110.14919"
       y2="131.85291"
       id="linearGradient3819"
       xlink:href="#linearGradient9515"
       gradientUnits="userSpaceOnUse"
       gradientTransform="matrix(2.3183964,0,0,2.3305334,-104.18276,-157.2379)" />
    <linearGradient
       x1="64.159966"
       y1="160.37045"
       x2="258.00021"
       y2="160.37045"
       id="linearGradient3821"
       xlink:href="#linearGradient11301"
       gradientUnits="userSpaceOnUse"
       gradientTransform="translate(2.0000358,1.99972)" />
  </defs>
  <g
     transform="matrix(0.98461515,0,0,0.98467492,2.7573489e-6,-0.01541943)"
     id="g3815">
    <path
       d="M 127.07728,2.7533125e-4 C 62.088614,2.7999232e-4 66.146926,28.330822 66.146926,28.330822 l 0.07245,29.350155 62.017104,0 0,8.812329 -86.650065,0 c 0,0 -41.586235775,-4.740948 -41.586235775,61.176504 -4.63679e-6,65.91743 36.297393775,63.57986 36.297393775,63.57986 l 21.662516,0 0,-30.58825 c 0,0 -1.167665,-36.48741 35.717795,-36.48741 36.885456,0 61.509956,0 61.509956,0 0,0 34.55859,0.56156 34.55859,-33.574249 0,-34.135803 0,-56.442606 0,-56.442606 0,-4e-6 5.24695,-34.15687966875 -62.66915,-34.15687966875 z M 92.880934,19.73698 c 6.170247,-5e-6 11.157286,5.013143 11.157286,11.215692 0,6.202549 -4.987039,11.215692 -11.157286,11.215692 -6.170247,5e-6 -11.157283,-5.013143 -11.157283,-11.215692 -4e-6,-6.202549 4.987036,-11.215692 11.157283,-11.215692 z"
       id="path8615"
       style="color:#000000;fill:url(#linearGradient3819);fill-opacity:1;fill-rule:nonzero;stroke:none;stroke-width:1;marker:none;visibility:visible;display:inline;overflow:visible" />
    <path
       d="m 130.923,258 c 64.98868,0 60.93035,-28.33055 60.93035,-28.33055 l -0.0723,-29.35015 -62.01711,0 0,-8.81233 86.65007,0 c 0,0 41.58623,4.74093 41.58623,-61.17653 3e-5,-65.917425 -36.29739,-63.579853 -36.29739,-63.579853 l -21.66252,0 0,30.588244 c 0,0 1.16769,36.487409 -35.71779,36.487409 -36.88546,0 -61.50996,0 -61.50996,0 0,0 -34.5586,-0.56156 -34.5586,33.57427 0,34.13579 0,56.44261 0,56.44261 0,0 -5.246948,34.15688 62.66916,34.15688 z m 34.19634,-19.7367 c -6.17025,0 -11.15728,-5.01314 -11.15728,-11.2157 0,-6.20255 4.98703,-11.21569 11.15728,-11.21569 6.17025,0 11.15729,5.01314 11.15729,11.21569 2e-5,6.20256 -4.98704,11.2157 -11.15729,11.2157 z"
       id="path8620"
       style="color:#000000;fill:none;stroke:url(#linearGradient3821);stroke-width:4;stroke-linejoin:miter;stroke-miterlimit:4;stroke-opacity:1;stroke-dasharray:none;marker:none;visibility:visible;display:inline;overflow:visible" />
  </g>
</svg>
